<svg width="149" height="48" viewBox="0 0 149 48" fill="none" xmlns="http://www.w3.org/2000/svg">
<g clip-path="url(#clip0_713_48288)">
<g clip-path="url(#clip1_713_48288)">
<path fill-rule="evenodd" clip-rule="evenodd" d="M18.5892 6.05798C17.3225 5.32718 15.7638 5.31424 14.4868 6.01915C14.4636 6.03708 14.439 6.05366 14.413 6.0687L14.4128 6.0688L14.4101 6.07039C13.5015 6.59546 12.8373 7.43643 12.5247 8.4079C12.3974 8.80997 12.3301 9.23475 12.3301 9.6696L12.3301 15.1817L19.235 19.1664L19.2355 19.1667C20.9314 20.1419 21.9712 21.9446 21.9712 23.8994L21.9712 38.1293C21.9712 38.7062 21.8797 39.2706 21.7071 39.8047C21.689 39.8614 21.67 39.9178 21.65 39.9738L30.9126 34.6261L30.9136 34.6255C32.2071 33.8818 33.0006 32.5074 33.0006 31.0144V16.7845C33.0006 15.2974 32.2025 13.917 30.9127 13.1729L30.9126 13.1728L18.5892 6.05798Z" fill="#1868DB"/>
<path fill-rule="evenodd" clip-rule="evenodd" d="M2.08703 13.1871L11.3506 7.83887C11.3306 7.89514 11.3114 7.95179 11.2932 8.00878C11.1208 8.54258 11.0294 9.1067 11.0294 9.68334L11.0294 23.9132C11.0294 25.8679 12.069 27.6704 13.7646 28.6457L13.7656 28.6462L20.6705 32.631V38.143C20.6705 38.5787 20.603 39.0042 20.4752 39.4069C20.162 40.3785 19.497 41.2193 18.5878 41.7438L18.5876 41.7439C18.5616 41.759 18.537 41.7756 18.5138 41.7935C17.2368 42.4984 15.6782 42.4855 14.4116 41.7548L14.4114 41.7547L2.08806 34.6398L2.08788 34.6397C0.798147 33.8957 0 32.5153 0 31.0281L0 16.7983C0 15.3052 0.793467 13.9308 2.08703 13.1871Z" fill="#1868DB"/>
</g>
<path d="M137.533 38.46C130.633 38.46 126.585 33.354 126.585 26.454C126.585 19.554 130.633 14.54 137.533 14.54C144.387 14.54 148.389 19.554 148.389 26.454C148.389 33.354 144.387 38.46 137.533 38.46ZM137.533 18.22C132.611 18.22 130.449 22.084 130.449 26.454C130.449 30.824 132.611 34.78 137.533 34.78C142.409 34.78 144.525 30.824 144.525 26.454C144.525 22.084 142.409 18.22 137.533 18.22Z" fill="#101214"/>
<path d="M116.513 38H111.223L102.299 15H106.439L113.891 34.642L121.297 15H125.437L116.513 38Z" fill="#101214"/>
<path d="M90.3201 38.46C83.4201 38.46 79.3721 33.354 79.3721 26.454C79.3721 19.554 83.4201 14.54 90.3201 14.54C97.1741 14.54 101.176 19.554 101.176 26.454C101.176 33.354 97.1741 38.46 90.3201 38.46ZM90.3201 18.22C85.3981 18.22 83.2361 22.084 83.2361 26.454C83.2361 30.824 85.3981 34.78 90.3201 34.78C95.1961 34.78 97.3121 30.824 97.3121 26.454C97.3121 22.084 95.1961 18.22 90.3201 18.22Z" fill="#101214"/>
<path d="M64.7662 11.7338H58.6942V22.7738H64.7662C70.1482 22.7738 71.8042 20.7038 71.8042 17.2538C71.8042 13.9878 70.1022 11.7338 64.7662 11.7338ZM75.9442 17.1618C75.9442 21.7158 74.0122 24.7978 70.0102 26.0858L77.4162 37.9998H72.5402L65.8702 26.7298C65.6862 26.7298 65.4562 26.7298 65.2262 26.7298H58.6942V37.9998H54.5542V7.77783H65.2262C72.4482 7.77783 75.9442 11.3658 75.9442 17.1618Z" fill="#101214"/>
</g>
<defs>
<clipPath id="clip0_713_48288">
<rect width="149" height="48" fill="white"/>
</clipPath>
<clipPath id="clip1_713_48288">
<rect width="41" height="48" fill="white"/>
</clipPath>
</defs>
</svg>
