<svg width="48" height="48" viewBox="0 0 48 48" fill="none" xmlns="http://www.w3.org/2000/svg">
<g clip-path="url(#clip0_713_48273)">
<path fill-rule="evenodd" clip-rule="evenodd" d="M25.5892 6.05798C24.3225 5.32718 22.7638 5.31424 21.4868 6.01915C21.4636 6.03708 21.439 6.05366 21.413 6.0687L21.4128 6.0688L21.4101 6.07039C20.5015 6.59546 19.8373 7.43643 19.5247 8.4079C19.3974 8.80997 19.3301 9.23475 19.3301 9.6696V15.1817L26.235 19.1664L26.2355 19.1667C27.9314 20.1419 28.9712 21.9446 28.9712 23.8994L28.9712 38.1293C28.9712 38.7062 28.8797 39.2706 28.7071 39.8047C28.689 39.8614 28.67 39.9178 28.65 39.9738L37.9126 34.6261L37.9136 34.6255C39.2071 33.8818 40.0006 32.5074 40.0006 31.0144V16.7845C40.0006 15.2974 39.2025 13.917 37.9127 13.1729L37.9126 13.1728L25.5892 6.05798Z" fill="#1868DB"/>
<path fill-rule="evenodd" clip-rule="evenodd" d="M9.08703 13.1871L18.3506 7.83887C18.3306 7.89514 18.3114 7.95179 18.2932 8.00878C18.1208 8.54258 18.0294 9.1067 18.0294 9.68334V23.9132C18.0294 25.8679 19.069 27.6704 20.7646 28.6457L20.7656 28.6462L27.6705 32.631V38.143C27.6705 38.5787 27.603 39.0042 27.4752 39.4069C27.162 40.3785 26.497 41.2193 25.5878 41.7438L25.5876 41.7439C25.5616 41.759 25.537 41.7756 25.5138 41.7935C24.2368 42.4984 22.6782 42.4855 21.4116 41.7548L21.4114 41.7547L9.08806 34.6398L9.08788 34.6397C7.79815 33.8957 7 32.5153 7 31.0281L7 16.7983C7 15.3052 7.79347 13.9308 9.08703 13.1871Z" fill="#1868DB"/>
</g>
<defs>
<clipPath id="clip0_713_48273">
<rect width="48" height="48" fill="white"/>
</clipPath>
</defs>
</svg>
